<?xml version="1.0" encoding="utf-8"?>
<!-- Generator: Adobe Illustrator 18.0.0, SVG Export Plug-In . SVG Version: 6.00 Build 0)  -->
<!DOCTYPE svg PUBLIC "-//W3C//DTD SVG 1.1//EN" "http://www.w3.org/Graphics/SVG/1.1/DTD/svg11.dtd">
<svg version="1.1" id="Capa_1" xmlns="http://www.w3.org/2000/svg" xmlns:xlink="http://www.w3.org/1999/xlink" x="0px" y="0px"
	 viewBox="186 0 580 560" enable-background="new 186 0 580 560" xml:space="preserve">
<g>
	<path fill="#00B0D0" d="M526.7,248.9h124.4c8.6,0,15.6-7,15.6-15.6c0-8.6-7-15.6-15.6-15.6h-86.9L724.3,57.7c6.1-6.1,6.1-15.9,0-22
		c-6.1-6.1-15.9-6.1-22,0L542.2,195.8v-86.9c0-8.6-7-15.6-15.6-15.6s-15.6,7-15.6,15.6v124.4C511.1,241.9,518.1,248.9,526.7,248.9z"
		/>
	<path fill="#00B0D0" d="M715.1,367.6c-34.3,0-67.9-5.4-99.9-15.9c-15.9-5.4-34-1.2-44.4,9.4l-63,47.5c-73-39-118-83.9-156.5-156.4
		l46.1-61.3c12-12,16.3-29.5,11.1-45.9c-10.6-32.1-16-65.7-16-100c0-24.8-20.2-44.9-44.9-44.9H244.9C220.2,0,200,20.2,200,44.9
		c0,284,231.1,515.1,515.1,515.1c24.8,0,44.9-20.2,44.9-44.9V412.5C760,387.7,739.8,367.6,715.1,367.6z"/>
</g>
<path fill="#F2F3FF" d="M728.9,515.1c0,7.6-6.2,13.8-13.8,13.8c-266.9,0-484-217.1-484-484c0-7.6,6.2-13.8,13.8-13.8h102.8
	c7.6,0,13.8,6.2,13.8,13.8c0,37.6,5.9,74.6,17.5,109.5c1.6,5.2,0.3,10.5-4.9,16l-53.5,70.8c-3.6,4.8-4.1,11.1-1.5,16.4
	c43.6,85.8,96.7,138.8,183.1,183.1c5.3,2.7,11.7,2.2,16.5-1.4l72.4-54.9c3.7-3.7,9.1-5,14.1-3.3c35.2,11.6,72.2,17.5,109.8,17.5
	c7.6,0,13.8,6.2,13.8,13.8V515.1z"/>
<path opacity="0.1" enable-background="new    " d="M715.1,398.7c-11,0-22-0.7-32.8-1.7v20.2c0,37.3-32.6,66-69.6,61.8
	c-99.7-11.5-189.9-53.7-261.8-116.5c88.8,101.7,219,166.3,364.2,166.3c7.6,0,13.8-6.2,13.8-13.8V412.5
	C728.9,404.9,722.7,398.7,715.1,398.7z"/>
<linearGradient id="SVGID_1_" gradientUnits="userSpaceOnUse" x1="-108.2772" y1="-17.1301" x2="-87.4588" y2="-7.4231" gradientTransform="matrix(31.1111 0 0 31.1111 3550.7642 606.209)">
	<stop  offset="0" style="stop-color:#FFFFFF;stop-opacity:0.2"/>
	<stop  offset="1" style="stop-color:#FFFFFF;stop-opacity:0"/>
</linearGradient>
<path fill="url(#SVGID_1_)" d="M526.7,248.9h124.4c8.6,0,15.6-7,15.6-15.6c0-8.6-7-15.6-15.6-15.6h-86.9L724.3,57.7
	c6.1-6.1,6.1-15.9,0-22c-6.1-6.1-15.9-6.1-22,0L542.2,195.8v-86.9c0-8.6-7-15.6-15.6-15.6s-15.6,7-15.6,15.6v124.4
	C511.1,241.9,518.1,248.9,526.7,248.9z M715.1,367.6c-34.3,0-67.9-5.4-99.9-15.9c-15.9-5.4-34-1.2-44.4,9.4l-63,47.5
	c-73-39-118-83.9-156.5-156.4l46.1-61.3c12-12,16.3-29.5,11.1-45.9c-10.6-32.1-16-65.7-16-100c0-24.8-20.2-44.9-44.9-44.9H244.9
	C220.2,0,200,20.2,200,44.9c0,284,231.1,515.1,515.1,515.1c24.8,0,44.9-20.2,44.9-44.9V412.5C760,387.7,739.8,367.6,715.1,367.6z"/>
</svg>
