<svg id="Capa_1" enable-background="new 0 0 512 512" height="512" viewBox="0 0 512 512" width="512" xmlns="http://www.w3.org/2000/svg"><g><circle cx="286.587" cy="125.411" fill="#f6e266" r="117.421"/><path d="m295.322 242.517c-2.884.216-5.8.319-8.736.319-64.85 0-117.42-52.58-117.42-117.43 0-64.84 52.57-117.42 117.42-117.42 2.936 0 5.851.103 8.736.319-60.77 4.471-108.684 55.197-108.684 117.101 0 61.914 47.914 112.64 108.684 117.111z" fill="#eab14d"/><circle cx="286.587" cy="125.411" fill="#eab14d" r="79.289"/><path d="m299.363 117.506c-9.841-2.865-20.75-6.342-27.052-10.413-2.936-1.896-2.913-4.941-2.639-6.588.576-3.458 3.417-7.705 9.661-9.254 13.723-3.405 22.563 2.729 23.057 3.083 3.395 2.527 8.2 1.852 10.765-1.525 2.581-3.398 1.919-8.245-1.479-10.826-.404-.307-7.098-5.271-18.013-6.771v-4.132c0-4.267-3.459-7.726-7.726-7.726s-7.726 3.459-7.726 7.726v4.607c-.855.166-1.719.348-2.599.566-11.13 2.761-19.444 11.283-21.182 21.711-1.483 8.895 2.156 17.367 9.497 22.108 6.427 4.151 15.442 7.706 31.117 12.269 8.136 2.369 12.322 7.164 11.484 13.156-1.277 9.136-11.585 14.118-20.634 14.167-10.447.057-14.573-.325-23.415-5.088-3.755-2.024-8.442-.619-10.466 3.137-2.024 3.757-.619 8.443 3.137 10.467 9.013 4.856 15.222 6.378 23.061 6.796v4.766c0 4.267 3.459 7.726 7.726 7.726s7.726-3.459 7.726-7.726v-5.319c16.479-2.961 26.515-14.959 28.169-26.787 1.926-13.769-6.894-25.596-22.469-30.13z" fill="#f6e266"/><g><path d="m231.103 333.763 132.356-76.767c15.495-9.396 35.566-5.746 46.761 8.503 10.779 13.719 10.112 33.208-1.58 46.158l-147.095 63.137z" fill="#eaac9d"/><path d="m285.93 337.012 132.356-76.767c15.495-9.396 35.566-5.746 46.761 8.503 10.779 13.719 10.112 33.208-1.58 46.158l-147.095 63.137z" fill="#ffcbbe"/><path d="m169.279 457.213-73.215 46.801-45.688-79.417-50.376-87.586 73.215-46.801 88.254 30.107-1.371 53.045z" fill="#90d8f9"/><path d="m169.279 457.213-73.215 46.801-45.689-79.417c52.405 4.11 77.84-38.776 77.84-38.776l35.719 14.54z" fill="#6bbef6"/><path d="m512 304.845c0 8.617-3.095 17.214-9.234 24.01l-24.468 27.095-50.21 55.613c-8.358 9.254-19.742 15.204-32.1 16.776l-226.709 28.876-57.921-100.698c-.438-.726-.856-1.463-1.274-2.209-.07-.119-.129-.239-.199-.348l-2.905-5.065c-.05-.08-.1-.159-.139-.229l-33.622-58.458 53.314-40.946c24.856-19.085 52.876-33.483 82.688-42.578 1.264-.388 2.527-.766 3.791-1.124 9.045-2.607 18.259-4.736 27.582-6.358l9.234-1.612c19.085-3.313 37.354 9.144 41.224 28.12.488 2.388.726 4.786.726 7.164 0 11.403-5.463 22.299-14.955 29.105l-58.837 42.15 157.723 19.712 81.872-49.642c15.493-9.393 35.563-5.741 46.757 8.508 5.125 6.516 7.662 14.337 7.662 22.138z" fill="#ffddce"/><path d="m478.298 355.951-50.21 55.613c-8.358 9.254-19.742 15.204-32.1 16.776l-226.709 28.876-57.921-100.698c68.518 115.912 339.487 29.841 366.94-.567z" fill="#ffcbbe"/><path d="m106.98 348.896c.975 1.652 1.94 3.333 2.905 5.065z" fill="#ffcbbe"/><circle cx="112.138" cy="447.149" fill="#fff" r="15.759"/></g><g fill="#f6e781"><g><path d="m130.639 124.447v1.928c0 6.799-5.265 12.437-12.048 12.903l-20.865 1.431c-7.474.513-13.818-5.412-13.818-12.903v-4.79c0-7.491 6.345-13.415 13.818-12.903l20.865 1.431c6.783.466 12.048 6.104 12.048 12.903z"/><path d="m146.74 186.465.964 1.67c3.4 5.888 1.659 13.404-3.983 17.198l-17.354 11.672c-6.216 4.181-14.673 2.223-18.418-4.265l-2.395-4.149c-3.746-6.488-1.213-14.79 5.516-18.083l18.785-9.193c6.107-2.989 13.485-.738 16.885 5.15z"/><path d="m147.704 62.687-.964 1.67c-3.4 5.888-10.778 8.139-16.885 5.15l-18.785-9.193c-6.729-3.293-9.261-11.596-5.516-18.083l2.395-4.149c3.746-6.488 12.202-8.446 18.418-4.265l17.354 11.672c5.642 3.795 7.382 11.31 3.983 17.198z"/></g><g><path d="m442.535 124.447v1.928c0 6.799 5.265 12.437 12.048 12.903l20.865 1.431c7.474.513 13.818-5.412 13.818-12.903v-4.79c0-7.491-6.345-13.415-13.818-12.903l-20.865 1.431c-6.783.466-12.048 6.104-12.048 12.903z"/><path d="m426.434 186.465-.964 1.67c-3.4 5.888-1.659 13.404 3.983 17.198l17.354 11.672c6.216 4.181 14.673 2.223 18.418-4.265l2.395-4.149c3.746-6.488 1.213-14.79-5.516-18.083l-18.785-9.193c-6.107-2.989-13.485-.738-16.885 5.15z"/><path d="m425.47 62.687.964 1.67c3.4 5.888 10.778 8.139 16.885 5.15l18.785-9.193c6.729-3.293 9.261-11.596 5.516-18.083l-2.395-4.149c-3.746-6.488-12.202-8.446-18.418-4.265l-17.354 11.672c-5.642 3.795-7.382 11.31-3.983 17.198z"/></g></g></g></svg>