<svg height="512" viewBox="0 0 64 64" width="512" xmlns="http://www.w3.org/2000/svg"><g id="Manager"><path d="m37.425 35.106-2.915-.728-5.51 26.622h16v-16.192a10 10 0 0 0 -7.575-9.702z" fill="#414042"/><path d="m58.085 59.481h-.005.005c1.789-.685 2.865-1.555 2.865-2.5v-5c0 2.209-5.82 4-13 4s-13-1.791-13-4v5c0 .947 1.076 1.817 2.865 2.5h.005-.005a30.157 30.157 0 0 0 10.135 1.5 30.153 30.153 0 0 0 10.135-1.5z" fill="#cc7400"/><ellipse cx="47.95" cy="51.979" fill="#ffa733" rx="13" ry="4"/><path d="m47.95 47.979c-.337 0-.669.007-1 .015 6.711.158 12 1.879 12 3.985s-5.289 3.826-12 3.984c.331.008.663.016 1 .016 7.18 0 13-1.791 13-4s-5.82-4-13-4z" fill="#e5962e"/><path d="m33 34-4-1-5 3-5-3-4 1-1.51.378 5.51 26.622h10l5.51-26.62z" fill="#9bc9ff"/><path d="m24 41-2.376-.594-1.624 14.594 4 4 4-4-1.646-14.785z" fill="#ed1c24"/><path d="m26.354 40.215-1.928.643 1.308 11.753a5 5 0 0 1 -1.434 4.089l-1.3 1.3 1 1 4-4z" fill="#d51920"/><path d="m21.624 40.406-1.624 14.594 4 4 4-4-1.646-14.785-2.354.785z" fill="none"/><path d="m24 41 2.354-.785-.153-2.454-2.201-1.761-2.206 1.764-.17 2.642z" fill="#ab2300"/><path d="m24 41 2.354-.785-.153-2.454-2.201-1.761-2.206 1.764-.17 2.642z" fill="#ab2300"/><path d="m26.201 37.761-2.201-1.761-1 .8 1.201.961.153 2.454-1.497.499 1.143.286 2.354-.785z" fill="#9a2000"/><path d="m33.922 17a4 4 0 0 1 -3.122-1.5l-2.8-3.5-1.6 2a8 8 0 0 1 -6.247 3h-6.153v4a10 10 0 0 0 20 0v-4z" fill="#ffc2b3"/><path d="m10.575 35.106a10 10 0 0 0 -7.575 9.702v16.192h16l-5.51-26.622z" fill="#414042"/><path d="m29 33v-3.349a9.941 9.941 0 0 1 -10 0v3.349l5 3z" fill="#ffbcab"/><path d="m24 36-5-3-4 1 4 6z" fill="#57a4ff"/><path d="m26.4 14 1.6-2 2.8 3.5a4 4 0 0 0 3.122 1.5h2.078v-4a10 10 0 0 0 -10-10h-4a10 10 0 0 0 -10 10v4h8.155a8 8 0 0 0 6.245-3z" fill="#ff5023"/><path d="m29 40 4-6-4-1-5 3z" fill="#57a4ff"/><path d="m58.085 49.481h-.005.005c1.789-.685 2.865-1.555 2.865-2.5v-5c0 2.209-5.82 4-13 4s-13-1.791-13-4v5c0 .947 1.076 1.817 2.865 2.5h.005-.005a30.157 30.157 0 0 0 10.135 1.5 30.153 30.153 0 0 0 10.135-1.5z" fill="#cc7400"/><ellipse cx="47.95" cy="41.979" fill="#ffa733" rx="13" ry="4"/><path d="m47.95 37.979c-.337 0-.669.007-1 .015 6.711.158 12 1.879 12 3.985s-5.289 3.826-12 3.984c.331.008.663.016 1 .016 7.18 0 13-1.791 13-4s-5.82-4-13-4z" fill="#e5962e"/><path d="m57.491 29.979a10 10 0 1 0 .459 3 10 10 0 0 0 -.459-3z" fill="#ff5023"/><path d="m57.491 29.979a9.935 9.935 0 0 0 -10.537-6.945 10 10 0 0 1 0 19.894c.329.033.663.051 1 .051a10 10 0 0 0 9.541-13z" fill="#cc401c"/><path d="m48 36c-1.221 0-2-.592-2-1a1 1 0 0 0 -2 0c0 1.421 1.259 2.571 3 2.9v1.1a1 1 0 0 0 2 0v-1.1c1.741-.327 3-1.477 3-2.9 0-1.682-1.757-3-4-3-1.221 0-2-.592-2-1s.779-1 2-1 2 .592 2 1a1 1 0 0 0 2 0c0-1.421-1.259-2.571-3-2.9v-1.1a1 1 0 0 0 -2 0v1.1c-1.741.327-3 1.477-3 2.9 0 1.682 1.757 3 4 3 1.221 0 2 .592 2 1s-.779 1-2 1z" fill="#f1f2f2"/><g fill="#58595b"><path d="m27 21h1a1 1 0 0 0 0-2h-1a1 1 0 0 0 0 2z"/><path d="m20 21h1a1 1 0 0 0 0-2h-1a1 1 0 0 0 0 2z"/><path d="m28.2 26.1.4-.3a1 1 0 1 0 -1.2-1.6l-.4.3a5.027 5.027 0 0 1 -6 0l-.4-.3a1 1 0 1 0 -1.2 1.6l.4.3a7.036 7.036 0 0 0 8.4 0z"/></g><path d="m54 34h1a1 1 0 0 0 0-2h-1a1 1 0 0 0 0 2z" fill="#f1f2f2"/><path d="m43 33a1 1 0 0 0 -1-1h-1a1 1 0 0 0 0 2h1a1 1 0 0 0 1-1z" fill="#f1f2f2"/></g></svg>