<?xml version="1.0" encoding="utf-8"?>
<!-- Generator: Adobe Illustrator 18.0.0, SVG Export Plug-In . SVG Version: 6.00 Build 0)  -->
<!DOCTYPE svg PUBLIC "-//W3C//DTD SVG 1.1//EN" "http://www.w3.org/Graphics/SVG/1.1/DTD/svg11.dtd">
<svg version="1.1" id="Capa_1" xmlns="http://www.w3.org/2000/svg" xmlns:xlink="http://www.w3.org/1999/xlink" x="0px" y="0px"
	 viewBox="382 0 578 560" enable-background="new 382 0 578 560" xml:space="preserve">
<g>
	<path fill="#00B0D0" d="M905.1,367.6c-34.3,0-67.9-5.4-99.9-15.9c-15.9-5.4-34-1.2-44.4,9.4l-63,47.5c-73-39-118-83.9-156.5-156.4
		l46.1-61.3c12-12,16.3-29.5,11.1-45.9c-10.6-32.1-16-65.7-16-100c0-24.8-20.2-44.9-44.9-44.9H434.9C410.2,0,390,20.2,390,44.9
		c0,284,231.1,515.1,515.1,515.1c24.8,0,44.9-20.2,44.9-44.9V412.5C950,387.7,929.8,367.6,905.1,367.6z"/>
</g>
<path fill="#F2F3FF" d="M918.9,515.1c0,7.6-6.2,13.8-13.8,13.8c-266.9,0-484-217.1-484-484c0-7.6,6.2-13.8,13.8-13.8h102.8
	c7.6,0,13.8,6.2,13.8,13.8c0,37.6,5.9,74.6,17.5,109.5c1.6,5.2,0.3,10.5-4.9,16l-53.5,70.8c-3.6,4.8-4.1,11.1-1.5,16.4
	c43.6,85.8,96.7,138.8,183.1,183.1c5.3,2.7,11.7,2.2,16.5-1.4l72.4-54.9c3.7-3.7,9.1-5,14.1-3.3c35.2,11.6,72.2,17.5,109.8,17.5
	c7.6,0,13.8,6.2,13.8,13.8L918.9,515.1L918.9,515.1z"/>
<path opacity="0.1" enable-background="new    " d="M905.1,398.7c-11,0-22-0.7-32.8-1.7v20.2c0,37.3-32.6,66-69.6,61.8
	c-99.7-11.5-189.9-53.7-261.8-116.5c88.8,101.7,219,166.3,364.2,166.3c7.6,0,13.8-6.2,13.8-13.8V412.5
	C918.9,404.9,912.7,398.7,905.1,398.7z"/>
<linearGradient id="SVGID_1_" gradientUnits="userSpaceOnUse" x1="-109.1169" y1="575.3283" x2="-88.2986" y2="565.6214" gradientTransform="matrix(31.1111 0 0 -31.1111 3740.7642 18028.4238)">
	<stop  offset="0" style="stop-color:#FFFFFF;stop-opacity:0.2"/>
	<stop  offset="1" style="stop-color:#FFFFFF;stop-opacity:0"/>
</linearGradient>
<path fill="url(#SVGID_1_)" d="M905.1,367.6c-34.3,0-67.9-5.4-99.9-15.9c-15.9-5.4-34-1.2-44.4,9.4l-63,47.5
	c-73-39-118-83.9-156.5-156.4l46.1-61.3c12-12,16.3-29.5,11.1-45.9c-10.6-32.1-16-65.7-16-100c0-24.8-20.2-44.9-44.9-44.9H434.9
	C410.2,0,390,20.2,390,44.9c0,284,231.1,515.1,515.1,515.1c24.8,0,44.9-20.2,44.9-44.9V412.5C950,387.7,929.8,367.6,905.1,367.6z"/>
<g>
	<path fill="#EFC41A" d="M931.4,299.8H630.9c-12.1,0-19.7-13.1-13.6-23.6L767.6,18.6c6.1-10.4,21.1-10.4,27.1,0l150.3,257.6
		C951,286.6,943.5,299.8,931.4,299.8z"/>
	<path fill="#FFFFFF" d="M782.2,211c-7,0-12.7-5.7-12.7-12.7V96.8c0-7,5.7-12.7,12.7-12.7s12.7,5.7,12.7,12.7v101.5
		C794.9,205.3,789.2,211,782.2,211z"/>
	<path fill="#FFFFFF" d="M782.2,261.7c-3.3,0-6.6-1.4-9-3.7c-2.3-2.4-3.7-5.7-3.7-9c0-3.3,1.4-6.6,3.7-9c4.8-4.7,13.2-4.7,18,0
		c2.3,2.4,3.7,5.7,3.7,9c0,3.3-1.4,6.6-3.7,9C788.8,260.3,785.6,261.7,782.2,261.7z"/>
</g>
</svg>
