<?xml version="1.0" encoding="utf-8"?>
<!-- Generator: Adobe Illustrator 18.0.0, SVG Export Plug-In . SVG Version: 6.00 Build 0)  -->
<!DOCTYPE svg PUBLIC "-//W3C//DTD SVG 1.1//EN" "http://www.w3.org/Graphics/SVG/1.1/DTD/svg11.dtd">
<svg version="1.1" id="Layer_1" xmlns="http://www.w3.org/2000/svg" xmlns:xlink="http://www.w3.org/1999/xlink" x="0px" y="0px"
	 viewBox="196 0 568 560" enable-background="new 196 0 568 560" xml:space="preserve">
<circle fill="#53E9FF" cx="480" cy="280" r="280"/>
<path fill="#0FCAD3" d="M757.9,314c-15.5,128.4-118,230-246.8,244.3L352.6,399.8l32.3-11.1l12.9,4.9c46.5,48.3,93.4,98.4,130.8,83.8
	l12.4-29.2l-41.5-22.7L391.7,269.7l22.7-103.5l46.2,34.7c-0.2-5.2-1.8-11.5-10.1-15.8l23.7-117.2l77,39.1l206.9,206.9L757.9,314z"/>
<path fill="#F7F7F8" d="M553,440c0.7,20.7-13.5,43.4-42.3,44.1c-36,0.7-81-57.1-112.6-82.7c-10.2-8.3-28.5-6.3-38.4,4.4l-7.2-6
	c15.5-16.8,36.1-18.8,54.3-5.5c28.1,22.8,76.8,80.4,104.6,79.7c21.9-0.8,31.5-21,29.8-34.5c4,0.5,7.9,0.6,11.9,0.6L553,440z"/>
<path fill="#FFD630" d="M399.5,163.4c-23.3,15.7-38.1,38.5-36.9,65.8c3.6,85.6,109.9,210.3,191.9,213.9c19.9,0.8,39.7-9.8,54.8-25
	c19.1-9-55.4-85.4-69.5-79c-11.7,6.8-22,17-29.5,28.1c-19.6-13.7-70.3-75.9-79.7-97.1c12.3-5.3,24.3-13.5,33.2-23.6
	c9-12.5-51.7-100.2-64.3-83.3L399.5,163.4L399.5,163.4L399.5,163.4z"/>
<g display="none">
	<path display="inline" fill="#F7F7F8" d="M533.9,218.3c0.8-2.6,1.7-5.1,2.3-7.7c5.5-22,1.9-44.5-10-62.9
		c-11.9-18.5-30.9-31.2-53-35.5c-2.7-0.5-5.2-0.8-7.9-1.1l3-14.9c2.9,0.2,5.7,0.7,8.6,1.2c26.2,5,48.6,19.9,62.6,41.8
		c14,21.9,18.2,48.5,11.8,74.3c-0.7,2.8-1.5,5.6-2.4,8.4l-14.8-3.5L533.9,218.3z"/>
	<path display="inline" fill="#F7F7F8" d="M508.9,212.3c0.6-1.7,1.1-3.4,1.6-5.2c3.9-15.7,1.3-31.7-7-44.8
		c-8.4-13.2-22-22.2-37.8-25.3c-1.8-0.4-3.5-0.6-5.3-0.7l3-14.9c2.1,0.2,4,0.5,6.1,0.8c19.8,3.8,36.7,15.1,47.3,31.6
		c10.6,16.5,13.7,36.6,8.9,56.2c-0.5,1.9-1.1,3.9-1.7,5.8l-14.8-3.5L508.9,212.3L508.9,212.3z"/>
	<path display="inline" fill="#F7F7F8" d="M484.7,206.6l0.2-0.7c2.6-10.1,0.8-20.4-4.6-28.9c-5.5-8.5-14.1-14.3-24.3-16.3l-0.7-0.1
		l3-14.9l1.5,0.2c14.2,2.7,26.2,10.8,33.9,22.6c7.5,11.8,9.8,26.2,6.3,40.2l-0.4,1.3l-14.8-3.5L484.7,206.6z"/>
	<path display="inline" fill="#F7F7F8" d="M460.3,200.9c-0.1-3.3-1.1-6.4-2.9-9.2c-1.8-2.8-4.3-5-7.2-6.6l3.2-15.4
		c7.2,2.4,13.2,7,17.2,13.5c4,6.3,5.7,13.8,5,21.3l-15.3-3.6V200.9z"/>
	<path display="inline" fill="#F7F7F8" d="M561.9,224.9c0.8-2.4,1.5-5,2.1-7.4c7.4-29.8,2.6-60.3-13.5-85.3
		c-16-25.1-41.8-42.3-71.8-48c-2.6-0.5-5.1-0.8-7.7-1.2l3-14.9c2.8,0.4,5.6,0.8,8.4,1.3c34.1,6.6,63.2,26,81.4,54.4
		s23.7,63,15.3,96.7c-0.7,2.7-1.5,5.5-2.3,8.1l-14.8-3.5L561.9,224.9z"/>
</g>
<g>
	<g>
		<path fill="#FFFFFF" d="M584.4,205.5c34.4-34.4,34.4-90.2,0-124.7c-34.4-34.4-90.2-34.4-124.7,0s-34.4,90.2,0,124.7
			S550,239.9,584.4,205.5z M490.4,129.7l19.8,19.8l43.4-43.4l15.4,15.4l-43.4,43.4l-15.4,15.4l-15.4-15.4l-19.8-19.8L490.4,129.7z"
			/>
	</g>
</g>
</svg>
