<?xml version="1.0" encoding="utf-8"?>
<!-- Generator: Adobe Illustrator 18.0.0, SVG Export Plug-In . SVG Version: 6.00 Build 0)  -->
<!DOCTYPE svg PUBLIC "-//W3C//DTD SVG 1.1//EN" "http://www.w3.org/Graphics/SVG/1.1/DTD/svg11.dtd">
<svg version="1.1" id="Capa_1" xmlns="http://www.w3.org/2000/svg" xmlns:xlink="http://www.w3.org/1999/xlink" x="0px" y="0px"
	 viewBox="186 0 580 560" enable-background="new 186 0 580 560" xml:space="preserve">
<g>
	<path fill="#00B0D0" d="M250.9,192.4c34.3,0,67.9,5.4,99.9,15.9c15.9,5.4,34,1.2,44.4-9.4l63-47.5c73,39,118,83.9,156.5,156.4
		l-46.1,61.3c-12,12-16.3,29.5-11.1,45.9c10.6,32.1,16,65.7,16,100c0,24.8,20.2,44.9,44.9,44.9h102.8c24.8,0,44.9-20.2,44.9-44.9
		C766,231.1,534.9,0,250.9,0C226.2,0,206,20.2,206,44.9v102.6C206,172.3,226.2,192.4,250.9,192.4z"/>
</g>
<path fill="#F2F3FF" d="M237.1,44.9c0-7.6,6.2-13.8,13.8-13.8c266.9,0,484,217.1,484,484c0,7.6-6.2,13.8-13.8,13.8H618.2
	c-7.6,0-13.8-6.2-13.8-13.8c0-37.6-5.9-74.6-17.5-109.5c-1.6-5.2-0.3-10.5,4.9-16l53.5-70.8c3.6-4.8,4.1-11.1,1.5-16.4
	c-43.6-85.8-96.7-138.8-183.1-183.1c-5.3-2.7-11.7-2.2-16.5,1.4l-72.4,54.9c-3.7,3.7-9.1,5-14.1,3.3
	c-35.2-11.6-72.2-17.5-109.8-17.5c-7.6,0-13.8-6.2-13.8-13.8V44.9z"/>
<path opacity="0.1" enable-background="new    " d="M250.9,161.3c11,0,22,0.7,32.8,1.7v-20.2c0-37.3,32.6-66,69.6-61.8
	c99.7,11.5,189.9,53.7,261.8,116.5C526.4,95.8,396.2,31.1,250.9,31.1c-7.6,0-13.8,6.2-13.8,13.8v102.6
	C237.1,155.1,243.3,161.3,250.9,161.3z"/>
<linearGradient id="SVGID_1_" gradientUnits="userSpaceOnUse" x1="-109.1162" y1="-15.3307" x2="-88.2979" y2="-5.6236" gradientTransform="matrix(31.1111 0 0 31.1111 3550.7642 606.209)">
	<stop  offset="0" style="stop-color:#FFFFFF;stop-opacity:0.2"/>
	<stop  offset="1" style="stop-color:#FFFFFF;stop-opacity:0"/>
</linearGradient>
<path fill="url(#SVGID_1_)" d="M715.1,367.6c-34.3,0-67.9-5.4-99.9-15.9c-15.9-5.4-34-1.2-44.4,9.4l-63,47.5
	c-73-39-118-83.9-156.5-156.4l46.1-61.3c12-12,16.3-29.5,11.1-45.9c-10.6-32.1-16-65.7-16-100c0-24.8-20.2-44.9-44.9-44.9H244.9
	C220.2,0,200,20.2,200,44.9c0,284,231.1,515.1,515.1,515.1c24.8,0,44.9-20.2,44.9-44.9V412.5C760,387.7,739.8,367.6,715.1,367.6z"/>
<path fill="#FFC107" d="M516.8,360.8c-5.3-3.9-12.1-8.9-12.9-12.1c0.3-6.2,2.1-12.3,5.2-17.7c4.7-10.8,9.6-22,4.2-31.3
	c-5.4-9.3-17.7-10.8-29.5-12.1c-6.1,0-12.2-1.5-17.6-4.2c-2.7-5.5-4.2-11.6-4.2-17.7c-1.3-11.8-2.7-24-12.1-29.5
	c-9.4-5.5-20.6-0.7-31.4,4.1c-5.4,3.1-11.5,4.8-17.7,5.2c-3.3-0.9-8.2-7.5-12.1-12.9c-6.9-9.2-14.6-19.7-25.7-19.7
	s-18.8,10.5-25.7,19.7c-4,5.4-8.9,12.1-12.1,12.9c-6.2-0.4-12.3-2.1-17.7-5.2c-10.9-4.8-22.1-9.6-31.3-4.2
	c-9.3,5.4-10.8,17.7-12.2,29.6c0,6.1-1.5,12.2-4.2,17.6c-5.5,2.7-11.5,4.1-17.6,4.1c-11.8,1.3-24.1,2.7-29.5,12.1
	c-5.4,9.4-0.7,20.6,4.1,31.4c3.1,5.4,4.9,11.5,5.2,17.8c-0.9,3.3-7.5,8.2-12.9,12.1c-9.2,6.8-19.7,14.5-19.7,25.7
	s10.5,18.9,19.7,25.7c5.3,3.9,12.1,8.9,12.9,12.1c-0.3,6.2-2.1,12.3-5.2,17.7c-4.7,10.8-9.6,22-4.2,31.3
	c5.4,9.3,17.7,10.8,29.5,12.1c6.1,0,12.2,1.5,17.6,4.2c2.7,5.5,4.2,11.6,4.2,17.7c1.3,11.8,2.7,24,12.1,29.5
	c9.4,5.5,20.5,0.5,31.3-4.2c5.5-3,11.6-4.8,17.8-5.1c3.3,0.9,8.2,7.5,12.1,12.9c6.8,9.2,14.5,19.7,25.7,19.7
	c11.1,0,18.8-10.5,25.7-19.7c4-5.4,8.9-12.1,12.1-12.9c6.2,0.4,12.3,2.1,17.7,5.2c10.8,4.7,22,9.5,31.3,4.2
	c9.3-5.4,10.8-17.7,12.2-29.5c0-6.1,1.5-12.2,4.2-17.6c5.5-2.7,11.5-4.1,17.6-4.2c11.8-1.3,24.1-2.7,29.5-12.1
	c5.4-9.4,0.5-20.5-4.2-31.3c-3.1-5.5-4.8-11.6-5.1-17.8c0.9-3.3,7.5-8.2,12.9-12.1c9.2-6.8,19.7-14.5,19.7-25.7
	S526.1,367.6,516.8,360.8z"/>
<g>
	<path fill="#FAFAFA" d="M317.7,424.2c-2.4,0-4.6-1.1-6-3L280,378.9v37.7c0,4.2-3.4,7.5-7.5,7.5c-4.2,0-7.5-3.4-7.5-7.5v-60.4
		c0-4.2,3.4-7.5,7.5-7.5c2.4,0,4.6,1.1,6,3l31.7,42.3v-37.7c0-4.2,3.4-7.5,7.5-7.5s7.5,3.4,7.5,7.5v60.4c0,3.2-2.1,6.1-5.2,7.2
		C319.3,424.1,318.5,424.2,317.7,424.2z"/>
	<path fill="#FAFAFA" d="M378.1,424.2h-30.2c-4.2,0-7.5-3.4-7.5-7.5v-60.4c0-4.2,3.4-7.5,7.5-7.5h30.2c4.2,0,7.5,3.4,7.5,7.5
		s-3.4,7.5-7.5,7.5h-22.6v45.3h22.6c4.2,0,7.5,3.4,7.5,7.5C385.6,420.8,382.2,424.2,378.1,424.2z"/>
	<path fill="#FAFAFA" d="M378.1,394h-30.2c-4.2,0-7.5-3.4-7.5-7.5s3.4-7.5,7.5-7.5h30.2c4.2,0,7.5,3.4,7.5,7.5S382.2,394,378.1,394z
		"/>
	<path fill="#FAFAFA" d="M453.5,424.2c-3.3,0-6.1-2.1-7.2-5.2l-7.9-23.8l-7.9,23.8c-1,3.3-4.1,5.4-7.5,5.1c-3.4-0.1-6.2-2.5-7-5.7
		l-15.1-60.4c-1-4,1.5-8.1,5.5-9.2c4-1,8.1,1.5,9.2,5.5l8.8,35.2l6.9-20.7c1.8-4,6.5-5.7,10.4-3.9c1.7,0.8,3.1,2.2,3.9,3.9l6.9,20.7
		l8.8-35.2c1-4,5.1-6.5,9.2-5.5c4,1,6.5,5.1,5.5,9.2l-15.1,60.4c-0.8,3.3-3.7,5.6-7,5.7L453.5,424.2z"/>
</g>
</svg>
