<?xml version="1.0" encoding="utf-8"?>
<!-- Generator: Adobe Illustrator 18.0.0, SVG Export Plug-In . SVG Version: 6.00 Build 0)  -->
<!DOCTYPE svg PUBLIC "-//W3C//DTD SVG 1.1//EN" "http://www.w3.org/Graphics/SVG/1.1/DTD/svg11.dtd">
<svg version="1.1" id="Capa_1" xmlns="http://www.w3.org/2000/svg" xmlns:xlink="http://www.w3.org/1999/xlink" x="0px" y="0px"
	 viewBox="186 0 580 560" enable-background="new 186 0 580 560" xml:space="preserve">
<g>
	<path fill="#00B0D0" d="M715.1,367.6c-34.3,0-67.9-5.4-99.9-15.9c-15.9-5.4-34-1.2-44.4,9.4l-63,47.5c-73-39-118-83.9-156.5-156.4
		l46.1-61.3c12-12,16.3-29.5,11.1-45.9c-10.6-32.1-16-65.7-16-100c0-24.8-20.2-44.9-44.9-44.9H244.9C220.2,0,200,20.2,200,44.9
		c0,284,231.1,515.1,515.1,515.1c24.8,0,44.9-20.2,44.9-44.9V412.5C760,387.7,739.8,367.6,715.1,367.6z"/>
</g>
<path fill="#F2F3FF" d="M728.9,515.1c0,7.6-6.2,13.8-13.8,13.8c-266.9,0-484-217.1-484-484c0-7.6,6.2-13.8,13.8-13.8h102.8
	c7.6,0,13.8,6.2,13.8,13.8c0,37.6,5.9,74.6,17.5,109.5c1.6,5.2,0.3,10.5-4.9,16l-53.5,70.8c-3.6,4.8-4.1,11.1-1.5,16.4
	c43.6,85.8,96.7,138.8,183.1,183.1c5.3,2.7,11.7,2.2,16.5-1.4l72.4-54.9c3.7-3.7,9.1-5,14.1-3.3c35.2,11.6,72.2,17.5,109.8,17.5
	c7.6,0,13.8,6.2,13.8,13.8V515.1z"/>
<path opacity="0.1" enable-background="new    " d="M715.1,398.7c-11,0-22-0.7-32.8-1.7v20.2c0,37.3-32.6,66-69.6,61.8
	c-99.7-11.5-189.9-53.7-261.8-116.5c88.8,101.7,219,166.3,364.2,166.3c7.6,0,13.8-6.2,13.8-13.8V412.5
	C728.9,404.9,722.7,398.7,715.1,398.7z"/>
<linearGradient id="SVGID_1_" gradientUnits="userSpaceOnUse" x1="-109.1162" y1="-15.3307" x2="-88.2979" y2="-5.6236" gradientTransform="matrix(31.1111 0 0 31.1111 3550.7642 606.209)">
	<stop  offset="0" style="stop-color:#FFFFFF;stop-opacity:0.2"/>
	<stop  offset="1" style="stop-color:#FFFFFF;stop-opacity:0"/>
</linearGradient>
<path fill="url(#SVGID_1_)" d="M715.1,367.6c-34.3,0-67.9-5.4-99.9-15.9c-15.9-5.4-34-1.2-44.4,9.4l-63,47.5
	c-73-39-118-83.9-156.5-156.4l46.1-61.3c12-12,16.3-29.5,11.1-45.9c-10.6-32.1-16-65.7-16-100c0-24.8-20.2-44.9-44.9-44.9H244.9
	C220.2,0,200,20.2,200,44.9c0,284,231.1,515.1,515.1,515.1c24.8,0,44.9-20.2,44.9-44.9V412.5C760,387.7,739.8,367.6,715.1,367.6z"/>
<path fill="#FFC107" d="M734.1,136.8c-4.8-3.6-10.9-8-11.7-10.9c0.3-5.6,1.9-11.1,4.7-16c4.3-9.8,8.7-19.9,3.8-28.3
	c-4.9-8.4-16-9.8-26.7-10.9c-5.5,0-11-1.3-16-3.8c-2.5-5-3.8-10.5-3.8-16c-1.2-10.7-2.4-21.7-10.9-26.7s-18.6-0.6-28.4,3.7
	c-4.9,2.8-10.4,4.4-16,4.7c-2.9-0.8-7.4-6.8-10.9-11.7C612,12.5,605.1,3,595,3s-17,9.5-23.2,17.8c-3.6,4.8-8,10.9-10.9,11.7
	c-5.6-0.3-11.1-1.9-16-4.7c-9.8-4.3-20-8.6-28.4-3.8s-9.8,16-11,26.8c0,5.5-1.3,11-3.8,16c-5,2.4-10.4,3.7-15.9,3.7
	c-10.7,1.2-21.8,2.4-26.7,10.9s-0.6,18.6,3.7,28.4c2.8,4.9,4.4,10.4,4.7,16.1c-0.8,2.9-6.8,7.4-11.7,10.9
	c-8.4,6.1-17.8,13.1-17.8,23.2c0,10.1,9.5,17.1,17.8,23.2c4.8,3.6,10.9,8,11.7,10.9c-0.3,5.6-1.9,11.1-4.7,16
	c-4.3,9.8-8.7,19.9-3.8,28.3c4.9,8.4,16,9.8,26.7,10.9c5.5,0,11,1.3,16,3.8c2.5,5,3.8,10.5,3.8,16c1.2,10.7,2.4,21.7,10.9,26.7
	c8.5,4.9,18.5,0.5,28.3-3.8c5-2.7,10.5-4.3,16.1-4.6c2.9,0.8,7.4,6.8,10.9,11.7c6.2,8.4,13.1,17.8,23.2,17.8
	c10.1,0,17-9.5,23.2-17.8c3.6-4.8,8-10.9,10.9-11.7c5.6,0.3,11.1,1.9,16,4.7c9.8,4.3,19.9,8.6,28.3,3.8c8.4-4.8,9.8-16,11-26.7
	c0-5.5,1.3-11,3.8-16c5-2.5,10.4-3.7,15.9-3.8c10.7-1.2,21.8-2.4,26.7-10.9c4.9-8.5,0.5-18.5-3.8-28.3c-2.8-4.9-4.4-10.5-4.6-16.1
	c0.8-2.9,6.8-7.4,11.7-10.9C742.5,177,752,170,752,160S742.5,142.9,734.1,136.8z"/>
<g>
	<path fill="#FAFAFA" d="M554,194.1c-2.1,0-4.2-1-5.5-2.7l-28.7-38.2v34.1c0,3.8-3.1,6.8-6.8,6.8c-3.8,0-6.8-3.1-6.8-6.8v-54.6
		c0-3.8,3.1-6.8,6.8-6.8c2.1,0,4.2,1,5.5,2.7l28.7,38.2v-34.1c0-3.8,3.1-6.8,6.8-6.8s6.8,3.1,6.8,6.8v54.6c0,2.9-1.9,5.5-4.7,6.5
		C555.5,194,554.8,194.1,554,194.1z"/>
	<path fill="#FAFAFA" d="M608.6,194.1h-27.3c-3.8,0-6.8-3.1-6.8-6.8v-54.6c0-3.8,3.1-6.8,6.8-6.8h27.3c3.8,0,6.8,3.1,6.8,6.8
		s-3.1,6.8-6.8,6.8h-20.5v41h20.5c3.8,0,6.8,3.1,6.8,6.8S612.4,194.1,608.6,194.1z"/>
	<path fill="#FAFAFA" d="M608.6,166.8h-27.3c-3.8,0-6.8-3.1-6.8-6.8s3.1-6.8,6.8-6.8h27.3c3.8,0,6.8,3.1,6.8,6.8
		S612.4,166.8,608.6,166.8z"/>
	<path fill="#FAFAFA" d="M676.9,194.1c-2.9,0-5.6-1.9-6.5-4.7l-7.2-21.5l-7.2,21.5c-0.9,2.9-3.7,4.9-6.7,4.7c-3-0.1-5.6-2.2-6.4-5.2
		l-13.7-54.6c-0.9-3.7,1.3-7.4,5-8.3s7.4,1.3,8.3,5l8,31.9l6.2-18.7c1.6-3.6,5.8-5.2,9.4-3.5c1.6,0.7,2.8,2,3.5,3.5l6.2,18.7l8-31.9
		c0.9-3.7,4.6-5.9,8.3-5c3.7,0.9,5.9,4.6,5,8.3l-13.7,54.6c-0.7,2.9-3.3,5-6.4,5.2L676.9,194.1z"/>
</g>
</svg>
